# xmcd
#
# Track frame offsets:
#	150
#	19739
#	34765
#	51075
#	64938
#	90227
#	107360
#	128342
#	147510
#	158779
#
# Disc length: 2417 seconds
#
# Revision: 0
# Processed by: cddbd v1.5.2PL0 Copyright (c) Steve Scherf et al.
# Submitted via: EZCDAudioConverter 3.0.6.1
#
DISCID=76096f0a
DTITLE=Emmylou Harris - Cimarron
DYEAR=1981
DGENRE=Country
TTITLE0=Rose of Cimarron
TTITLE1=Spanish Is a Loving Tongue
TTITLE2=If I Needed You
TTITLE3=Another Lonesome Morning
TTITLE4=The Last Cheater's Waltz
TTITLE5=Born To Run
TTITLE6=The Price You Pay
TTITLE7=Son of a Rotten Gambler
TTITLE8=Tennessee Waltz
TTITLE9=Tennesee Rose
EXTD=
EXTT0=
EXTT1=
EXTT2=
EXTT3=
EXTT4=
EXTT5=
EXTT6=
EXTT7=
EXTT8=
EXTT9=
PLAYORDER=
